<svg xmlns="http://www.w3.org/2000/svg" version="1.0" preserveAspectRatio="xMidYMid meet" viewBox="28.12 18.32 103.76 67.68"><g transform="translate(0.000000,106.000000) scale(0.100000,-0.100000)" fill="#000000" stroke="none"><path d="M991 861 c-6 -11 -11 -31 -11 -45 l0 -26 -110 0 c-60 0 -110 -2 -110 -6 0 -3 17 -31 38 -62 21 -31 67 -103 101 -159 35 -57 66 -103 69 -103 4 0 21 9 39 19 17 11 76 43 130 72 159 85 171 94 179 134 3 19 4 41 1 48 -3 7 -32 21 -66 30 -47 13 -61 21 -61 36 0 26 -16 36 -91 54 -36 9 -73 19 -82 23 -10 3 -20 -2 -26 -15z"></path><path d="M538 727 c-60 -11 -108 -23 -108 -27 0 -13 189 -223 322 -357 l130 -133 48 0 c26 0 62 -3 80 -7 40 -7 38 0 -16 86 -20 31 -62 97 -93 146 -32 50 -89 141 -127 203 -80 130 -62 123 -236 89z"></path><path d="M366 569 c-10 -45 -35 -142 -55 -215 -26 -92 -35 -136 -27 -144 5 -5 42 -10 81 -9 l70 1 68 102 c37 57 67 109 67 117 0 9 -14 28 -31 45 -17 16 -43 48 -58 71 -28 42 -87 113 -94 113 -2 0 -11 -37 -21 -81z"></path><path d="M1050 448 c-60 -41 -60 -46 7 -149 53 -82 65 -94 92 -97 36 -4 36 -4 16 35 -8 16 -28 74 -45 128 -17 54 -32 100 -34 102 -1 2 -18 -7 -36 -19z"></path><path d="M561 285 c-28 -41 -51 -77 -51 -80 0 -3 41 -5 91 -5 50 0 89 3 87 8 -1 4 -16 40 -33 79 -16 40 -33 73 -36 73 -3 0 -29 -34 -58 -75z"></path></g></svg>
